<svg xmlns="http://www.w3.org/2000/svg" viewBox="0 0 560 240" width="100%" height="100%">
  <defs>
    <linearGradient id="gate-grad-it-2006-cs-36" x1="0" y1="0" x2="1" y2="1">
      <stop offset="0%" stopColor="#1e293b" />
      <stop offset="100%" stopColor="#0f172a" />
    </linearGradient>
  </defs>
  <rect width="100%" height="100%" rx="16" fill="#0b1329" stroke="#1e293b" stroke-width="1.5" />
  <rect x="20" y="16" width="160" height="24" rx="6" fill="#1e293b" />
  <text x="30" y="32" fill="#38bdf8" font-size="11" font-weight="bold" font-family="monospace">LOGIC CIRCUIT</text>
  <polygon points="180,60 280,80 280,160 180,180" fill="url(#gate-grad-it-2006-cs-36)" stroke="#38bdf8" stroke-width="2" />
  <text x="220" y="125" text-anchor="middle" fill="#38bdf8" font-size="15" font-weight="bold" font-family="monospace">4:1 MUX</text>
  <line x1="120" y1="78" x2="180" y2="78" stroke="#38bdf8" stroke-width="2" />
  <text x="110" y="82" text-anchor="end" fill="#94a3b8" font-size="12" font-family="monospace">I₀</text>
  <line x1="120" y1="104" x2="180" y2="104" stroke="#38bdf8" stroke-width="2" />
  <text x="110" y="108" text-anchor="end" fill="#94a3b8" font-size="12" font-family="monospace">I₁</text>
  <line x1="120" y1="130" x2="180" y2="130" stroke="#38bdf8" stroke-width="2" />
  <text x="110" y="134" text-anchor="end" fill="#94a3b8" font-size="12" font-family="monospace">I₂</text>
  <line x1="120" y1="156" x2="180" y2="156" stroke="#38bdf8" stroke-width="2" />
  <text x="110" y="160" text-anchor="end" fill="#94a3b8" font-size="12" font-family="monospace">I₃</text>
  <line x1="210" y1="210" x2="210" y2="174" stroke="#f59e0b" stroke-width="2" />
  <line x1="250" y1="210" x2="250" y2="166" stroke="#f59e0b" stroke-width="2" />
  <text x="230" y="225" text-anchor="middle" fill="#f59e0b" font-size="12" font-family="monospace">S₁ S₀</text>
  <line x1="280" y1="120" x2="380" y2="120" stroke="#34d399" stroke-width="3" />
  <text x="395" y="125" fill="#34d399" font-size="16" font-weight="bold" font-family="monospace">F</text>
</svg>