<svg xmlns="http://www.w3.org/2000/svg" viewBox="0 0 340 190" width="100%" height="100%">
  <rect width="100%" height="100%" fill="#0b1329" rx="8"/>
  <!-- Level 0 -->
  <circle cx="170" cy="25" r="18" fill="#1e293b" stroke="#10b981" stroke-width="2.5"/>
  <text x="170" y="30" fill="#34d399" font-family="monospace" font-size="13" font-weight="bold" text-anchor="middle">32</text>
  <!-- Level 1 -->
  <line x1="155" y1="38" x2="95" y2="70" stroke="#10b981" stroke-width="1.5"/>
  <line x1="185" y1="38" x2="245" y2="70" stroke="#10b981" stroke-width="1.5"/>
  <circle cx="95" cy="80" r="16" fill="#1e293b" stroke="#3b82f6" stroke-width="2"/>
  <text x="95" y="85" fill="#f8fafc" font-family="monospace" font-size="12" text-anchor="middle">30</text>
  <circle cx="245" cy="80" r="16" fill="#1e293b" stroke="#3b82f6" stroke-width="2"/>
  <text x="245" y="85" fill="#f8fafc" font-family="monospace" font-size="12" text-anchor="middle">25</text>
  <!-- Level 2 -->
  <line x1="85" y1="93" x2="55" y2="125" stroke="#64748b" stroke-width="1.5"/>
  <line x1="105" y1="93" x2="135" y2="125" stroke="#64748b" stroke-width="1.5"/>
  <circle cx="55" cy="135" r="14" fill="#1e293b" stroke="#64748b" stroke-width="1.5"/>
  <text x="55" y="139" fill="#cbd5e1" font-family="monospace" font-size="11" text-anchor="middle">15</text>
  <circle cx="135" cy="135" r="14" fill="#1e293b" stroke="#64748b" stroke-width="1.5"/>
  <text x="135" y="139" fill="#cbd5e1" font-family="monospace" font-size="11" text-anchor="middle">12</text>
  <line x1="235" y1="93" x2="205" y2="125" stroke="#64748b" stroke-width="1.5"/>
  <line x1="255" y1="93" x2="285" y2="125" stroke="#64748b" stroke-width="1.5"/>
  <circle cx="205" cy="135" r="14" fill="#1e293b" stroke="#64748b" stroke-width="1.5"/>
  <text x="205" y="139" fill="#cbd5e1" font-family="monospace" font-size="11" text-anchor="middle">20</text>
  <circle cx="285" cy="135" r="14" fill="#1e293b" stroke="#64748b" stroke-width="1.5"/>
  <text x="285" y="139" fill="#cbd5e1" font-family="monospace" font-size="11" text-anchor="middle">16</text>
  <text x="170" y="175" fill="#34d399" font-family="monospace" font-size="11" font-weight="bold" text-anchor="middle">✓ Valid Complete Max-Heap (Option C)</text>
</svg>