<svg xmlns="http://www.w3.org/2000/svg" viewBox="0 0 560 240" width="100%" height="100%">
  <rect width="100%" height="100%" rx="16" fill="#0b1329" stroke="#1e293b" stroke-width="1.5" />
  <rect x="20" y="16" width="160" height="24" rx="6" fill="#1e293b" />
  <text x="30" y="32" fill="#38bdf8" font-size="11" font-weight="bold" font-family="monospace">GRAPH / NETWORK</text>
  <!-- Edges -->
  <line x1="280.0" y1="50.0" x2="349.28203230275506" y2="90.0" stroke="#475569" stroke-width="2" />
  <rect x="304.6410161513775" y="62.0" width="20" height="16" rx="4" fill="#0f172a" stroke="#64748b" stroke-width="1" />
  <text x="314.6410161513775" y="74.0" text-anchor="middle" fill="#38bdf8" font-size="10" font-weight="bold" font-family="monospace">2</text>
  <line x1="349.28203230275506" y1="90.0" x2="349.2820323027551" y2="170.0" stroke="#475569" stroke-width="2" />
  <rect x="339.28203230275506" y="122.0" width="20" height="16" rx="4" fill="#0f172a" stroke="#64748b" stroke-width="1" />
  <text x="349.28203230275506" y="134.0" text-anchor="middle" fill="#38bdf8" font-size="10" font-weight="bold" font-family="monospace">3</text>
  <line x1="349.2820323027551" y1="170.0" x2="280.0" y2="210.0" stroke="#475569" stroke-width="2" />
  <rect x="304.6410161513776" y="182.0" width="20" height="16" rx="4" fill="#0f172a" stroke="#64748b" stroke-width="1" />
  <text x="314.6410161513776" y="194.0" text-anchor="middle" fill="#38bdf8" font-size="10" font-weight="bold" font-family="monospace">5</text>
  <line x1="280.0" y1="210.0" x2="210.71796769724492" y2="170.00000000000003" stroke="#475569" stroke-width="2" />
  <rect x="235.35898384862247" y="182.0" width="20" height="16" rx="4" fill="#0f172a" stroke="#64748b" stroke-width="1" />
  <text x="245.35898384862247" y="194.0" text-anchor="middle" fill="#38bdf8" font-size="10" font-weight="bold" font-family="monospace">7</text>
  <line x1="210.71796769724492" y1="170.00000000000003" x2="210.71796769724492" y2="90.0" stroke="#475569" stroke-width="2" />
  <rect x="200.71796769724492" y="122.0" width="20" height="16" rx="4" fill="#0f172a" stroke="#64748b" stroke-width="1" />
  <text x="210.71796769724492" y="134.0" text-anchor="middle" fill="#38bdf8" font-size="10" font-weight="bold" font-family="monospace">4</text>
  <line x1="210.71796769724492" y1="90.0" x2="280.0" y2="50.0" stroke="#475569" stroke-width="2" />
  <rect x="235.35898384862247" y="62.0" width="20" height="16" rx="4" fill="#0f172a" stroke="#64748b" stroke-width="1" />
  <text x="245.35898384862247" y="74.0" text-anchor="middle" fill="#38bdf8" font-size="10" font-weight="bold" font-family="monospace">2</text>
  <line x1="280.0" y1="50.0" x2="349.2820323027551" y2="170.0" stroke="#10b981" stroke-width="2.5" stroke-dasharray="4 2" />
  <!-- Vertices -->
  <circle cx="280.0" cy="50.0" r="18" fill="#1e293b" stroke="#38bdf8" stroke-width="2" />
  <text x="280.0" y="55.0" text-anchor="middle" fill="#f8fafc" font-size="12" font-weight="bold" font-family="monospace">P</text>
  <circle cx="349.28203230275506" cy="90.0" r="18" fill="#1e293b" stroke="#38bdf8" stroke-width="2" />
  <text x="349.28203230275506" y="95.0" text-anchor="middle" fill="#f8fafc" font-size="12" font-weight="bold" font-family="monospace">Q</text>
  <circle cx="349.2820323027551" cy="170.0" r="18" fill="#1e293b" stroke="#38bdf8" stroke-width="2" />
  <text x="349.2820323027551" y="175.0" text-anchor="middle" fill="#f8fafc" font-size="12" font-weight="bold" font-family="monospace">R</text>
  <circle cx="280.0" cy="210.0" r="18" fill="#1e293b" stroke="#38bdf8" stroke-width="2" />
  <text x="280.0" y="215.0" text-anchor="middle" fill="#f8fafc" font-size="12" font-weight="bold" font-family="monospace">S</text>
  <circle cx="210.71796769724492" cy="170.00000000000003" r="18" fill="#1e293b" stroke="#38bdf8" stroke-width="2" />
  <text x="210.71796769724492" y="175.00000000000003" text-anchor="middle" fill="#f8fafc" font-size="12" font-weight="bold" font-family="monospace">T</text>
  <circle cx="210.71796769724492" cy="90.0" r="18" fill="#1e293b" stroke="#38bdf8" stroke-width="2" />
  <text x="210.71796769724492" y="95.0" text-anchor="middle" fill="#f8fafc" font-size="12" font-weight="bold" font-family="monospace">U</text>
</svg>