<svg xmlns="http://www.w3.org/2000/svg" viewBox="0 0 560 240" width="100%" height="100%">
  <defs>
    <linearGradient id="gate-grad-cse-1993-ii-a-6-3" x1="0" y1="0" x2="1" y2="1">
      <stop offset="0%" stopColor="#1e293b" />
      <stop offset="100%" stopColor="#0f172a" />
    </linearGradient>
  </defs>
  <rect width="100%" height="100%" rx="16" fill="#0b1329" stroke="#1e293b" stroke-width="1.5" />
  <rect x="20" y="16" width="160" height="24" rx="6" fill="#1e293b" />
  <text x="30" y="32" fill="#38bdf8" font-size="11" font-weight="bold" font-family="monospace">LOGIC CIRCUIT</text>
  <rect x="80" y="70" width="80" height="90" rx="8" fill="url(#gate-grad-cse-1993-ii-a-6-3)" stroke="#38bdf8" stroke-width="2" />
  <text x="120" y="100" text-anchor="middle" fill="#38bdf8" font-size="13" font-weight="bold" font-family="monospace">FF₀</text>
  <text x="92" y="125" fill="#94a3b8" font-size="11" font-family="monospace">CLK</text>
  <text x="142" y="125" fill="#34d399" font-size="12" font-weight="bold" font-family="monospace">Q</text>
  <text x="142" y="148" fill="#f43f5e" font-size="12" font-weight="bold" font-family="monospace">Q̄</text>
  <line x1="160" y1="120" x2="230" y2="120" stroke="#34d399" stroke-width="2" />
  <rect x="230" y="70" width="80" height="90" rx="8" fill="url(#gate-grad-cse-1993-ii-a-6-3)" stroke="#38bdf8" stroke-width="2" />
  <text x="270" y="100" text-anchor="middle" fill="#38bdf8" font-size="13" font-weight="bold" font-family="monospace">FF₁</text>
  <text x="242" y="125" fill="#94a3b8" font-size="11" font-family="monospace">CLK</text>
  <text x="292" y="125" fill="#34d399" font-size="12" font-weight="bold" font-family="monospace">Q</text>
  <text x="292" y="148" fill="#f43f5e" font-size="12" font-weight="bold" font-family="monospace">Q̄</text>
  <line x1="310" y1="120" x2="380" y2="120" stroke="#34d399" stroke-width="2" />
  <rect x="380" y="70" width="80" height="90" rx="8" fill="url(#gate-grad-cse-1993-ii-a-6-3)" stroke="#38bdf8" stroke-width="2" />
  <text x="420" y="100" text-anchor="middle" fill="#38bdf8" font-size="13" font-weight="bold" font-family="monospace">FF₂</text>
  <text x="392" y="125" fill="#94a3b8" font-size="11" font-family="monospace">CLK</text>
  <text x="442" y="125" fill="#34d399" font-size="12" font-weight="bold" font-family="monospace">Q</text>
  <text x="442" y="148" fill="#f43f5e" font-size="12" font-weight="bold" font-family="monospace">Q̄</text>
  <path d="M 40 180 L 460 180" stroke="#f59e0b" stroke-width="2" />
  <text x="40" y="170" fill="#f59e0b" font-size="11" font-weight="bold" font-family="monospace">CLK BUS</text>
  <line x1="100" y1="180" x2="100" y2="160" stroke="#f59e0b" stroke-width="2" />
  <line x1="250" y1="180" x2="250" y2="160" stroke="#f59e0b" stroke-width="2" />
  <line x1="400" y1="180" x2="400" y2="160" stroke="#f59e0b" stroke-width="2" />
</svg>